<svg width="512" height="512" viewBox="0 0 512 512" fill="none" xmlns="http://www.w3.org/2000/svg">
  <rect width="512" height="512" rx="136" fill="url(#bg)"/>
  <circle cx="118" cy="128" r="48" fill="#FFF2A8" fill-opacity="0.92"/>
  <circle cx="396" cy="106" r="34" fill="#FFD6EB" fill-opacity="0.88"/>
  <circle cx="404" cy="392" r="58" fill="#B6F7E7" fill-opacity="0.8"/>
  <path d="M144 262C144 199.039 195.039 148 258 148C320.961 148 372 199.039 372 262C372 324.961 320.961 376 258 376C195.039 376 144 324.961 144 262Z" fill="#FFF9F0"/>
  <path d="M223.722 209.762C234.616 171.176 289.384 171.176 300.278 209.762L305.847 229.49C309.291 241.691 318.806 251.214 331.009 254.657L350.738 260.225C389.324 271.119 389.324 325.881 350.738 336.775L331.009 342.343C318.806 345.786 309.291 355.309 305.847 367.51L300.278 387.238C289.384 425.824 234.616 425.824 223.722 387.238L218.153 367.51C214.709 355.309 205.194 345.786 192.991 342.343L173.262 336.775C134.676 325.881 134.676 271.119 173.262 260.225L192.991 254.657C205.194 251.214 214.709 241.691 218.153 229.49L223.722 209.762Z" fill="#FF8AB8"/>
  <path d="M256 232L267.993 256.298L294.816 260.195L275.408 279.109L279.986 305.824L256 293.215L232.014 305.824L236.592 279.109L217.184 260.195L244.007 256.298L256 232Z" fill="#FFF4A6"/>
  <defs>
    <linearGradient id="bg" x1="57" y1="59" x2="454" y2="453" gradientUnits="userSpaceOnUse">
      <stop stop-color="#8CD9FF"/>
      <stop offset="0.47" stop-color="#FFB2CF"/>
      <stop offset="1" stop-color="#FFE38C"/>
    </linearGradient>
  </defs>
</svg>
